<svg xmlns="http://www.w3.org/2000/svg" width="36" height="36"><path fill="#b3b3b3" d="M17.995 2.95c-.429 0-.801.157-1.115.471l-8.248 8.248H2.143c-.43 0-.801.157-1.115.471s-.471.686-.471 1.115v9.51c0 .429.157.801.471 1.115s.686.471 1.115.471h6.489l8.248 8.248c.314.314.685.471 1.115.471s.801-.157 1.115-.471.471-.685.471-1.115V4.536c0-.429-.157-.801-.47-1.115s-.685-.471-1.115-.471zM28.04 21.515c.702-1.081 1.053-2.249 1.053-3.505s-.351-2.428-1.053-3.518c-.702-1.09-1.63-1.858-2.787-2.304a1.387 1.387 0 00-.619-.124c-.429 0-.801.153-1.115.458a1.513 1.513 0 00-.471 1.127c0 .347.099.64.298.879s.437.446.718.619c.28.173.561.363.842.57s.52.499.718.879c.198.38.297.851.297 1.412s-.099 1.032-.297 1.412c-.198.38-.437.673-.718.879s-.562.397-.842.57c-.281.173-.52.38-.718.619s-.298.533-.298.879c0 .446.158.821.471 1.127a1.55 1.55 0 001.115.459c.247 0 .454-.041.619-.124 1.156-.463 2.085-1.235 2.787-2.317z"/><path fill="#b3b3b3" d="M33.327 25.008c1.404-2.137 2.106-4.471 2.106-6.999 0-2.527-.702-4.859-2.106-6.999-1.404-2.137-3.262-3.695-5.573-4.669a1.791 1.791 0 00-.644-.124c-.429 0-.801.157-1.115.471s-.47.685-.47 1.115c0 .644.322 1.131.966 1.462.924.479 1.552.842 1.882 1.09 1.222.892 2.176 2.01 2.861 3.356s1.028 2.778 1.028 4.299a9.354 9.354 0 01-1.028 4.299 9.35 9.35 0 01-2.861 3.356c-.33.248-.958.611-1.882 1.09-.644.331-.966.817-.966 1.462 0 .429.157.801.47 1.115s.693.471 1.139.471c.198 0 .405-.042.619-.124 2.311-.975 4.17-2.531 5.573-4.67z"/></svg>